<svg width="1786" height="256" viewBox="0 0 1786 256" fill="none" xmlns="http://www.w3.org/2000/svg">
<rect width="1786" height="256" fill="none"/>
<g clip-path="url(#clip0_0_1)">
<path d="M1114 0H978C944.863 0 918 26.8629 918 60V196C918 229.137 944.863 256 978 256H1114C1147.14 256 1174 229.137 1174 196V60C1174 26.8629 1147.14 0 1114 0Z" fill="#242938"/>
<path d="M1046 146.951C1056.31 146.951 1064.66 138.598 1064.66 128.295C1064.66 117.992 1056.31 109.639 1046 109.639C1035.7 109.639 1027.35 117.992 1027.35 128.295C1027.35 138.598 1035.7 146.951 1046 146.951Z" fill="#00D8FF"/>
<path fill-rule="evenodd" clip-rule="evenodd" d="M1046 90.3633C1071.05 90.3633 1094.32 93.9575 1111.86 99.9976C1133 107.275 1146 118.306 1146 128.295C1146 138.704 1132.23 150.423 1109.52 157.944C1092.36 163.63 1069.78 166.598 1046 166.598C1021.62 166.598 998.539 163.812 981.183 157.881C959.226 150.376 946 138.506 946 128.295C946 118.387 958.41 107.441 979.251 100.175C996.862 94.0353 1020.71 90.3633 1046 90.3633H1046Z" stroke="#00D8FF" stroke-width="8.911"/>
<path fill-rule="evenodd" clip-rule="evenodd" d="M1012.98 109.438C1025.49 87.7402 1040.23 69.3783 1054.23 57.1971C1071.09 42.5206 1087.14 36.7728 1095.8 41.7623C1104.81 46.9623 1108.08 64.7496 1103.26 88.1712C1099.61 105.879 1090.9 126.925 1079.02 147.523C1066.84 168.641 1052.9 187.247 1039.09 199.315C1021.62 214.587 1004.73 220.114 995.883 215.013C987.3 210.067 984.018 193.846 988.136 172.161C991.614 153.838 1000.35 131.349 1012.98 109.438H1012.98Z" stroke="#00D8FF" stroke-width="8.911"/>
<path fill-rule="evenodd" clip-rule="evenodd" d="M1013.01 147.578C1000.46 125.904 991.919 103.962 988.353 85.7516C984.06 63.8108 987.095 47.0354 995.74 42.0314C1004.75 36.8162 1021.79 42.8659 1039.67 58.7436C1053.19 70.7478 1067.08 88.8051 1078.99 109.383C1091.2 130.481 1100.36 151.856 1103.92 169.844C1108.43 192.608 1104.78 210.001 1095.94 215.116C1087.37 220.08 1071.68 214.825 1054.95 200.427C1040.81 188.263 1025.68 169.468 1013.01 147.578Z" stroke="#00D8FF" stroke-width="8.911"/>
</g>
<g clip-path="url(#clip1_0_1)">
<path d="M808 0H672C638.863 0 612 26.8629 612 60V196C612 229.137 638.863 256 672 256H808C841.137 256 868 229.137 868 196V60C868 26.8629 841.137 0 808 0Z" fill="#F0DB4F"/>
<path d="M679.312 213.932L698.903 202.076C702.682 208.777 706.12 214.447 714.367 214.447C722.272 214.447 727.256 211.355 727.256 199.327V117.529H751.314V199.667C751.314 224.584 736.708 235.926 715.398 235.926C696.153 235.926 684.982 225.959 679.311 213.93" fill="#323330"/>
<path d="M764.381 211.354L783.969 200.013C789.126 208.434 795.828 214.62 807.684 214.62C817.653 214.62 824.009 209.636 824.009 202.762C824.009 194.514 817.479 191.592 806.481 186.782L800.468 184.203C783.111 176.815 771.597 167.535 771.597 147.945C771.597 129.901 785.345 116.153 806.826 116.153C822.12 116.153 833.118 121.481 841.022 135.4L822.291 147.429C818.166 140.04 813.7 137.119 806.826 137.119C799.78 137.119 795.312 141.587 795.312 147.429C795.312 154.646 799.78 157.568 810.09 162.037L816.104 164.614C836.553 173.379 848.067 182.313 848.067 202.418C848.067 224.072 831.055 235.928 808.2 235.928C785.861 235.928 771.426 225.274 764.381 211.354Z" fill="#323330"/>
</g>
<g clip-path="url(#clip2_0_1)">
<path d="M196 0H60C26.8629 0 0 26.8629 0 60V196C0 229.137 26.8629 256 60 256H196C229.137 256 256 229.137 256 196V60C256 26.8629 229.137 0 196 0Z" fill="#E14E1D"/>
<path d="M48 38L56.6098 134.593H167.32L163.605 176.023L127.959 185.661L92.38 176.037L90.0012 149.435H57.9389L62.5236 200.716L127.951 218.888L193.461 200.716L202.244 102.655H85.8241L82.901 69.9448H205.041H205.139L208 38H48Z" fill="white"/>
<path d="M128 38H48L56.6098 134.593H128V102.655H85.8241L82.901 69.9448H128V38Z" fill="#EBEBEB"/>
<path d="M128 185.647L127.959 185.661L92.38 176.037L90.0012 149.435H57.9388L62.5236 200.716L127.951 218.888L128 218.874V185.647Z" fill="#EBEBEB"/>
</g>
<g clip-path="url(#clip3_0_1)">
<path d="M1726 0H1590C1556.86 0 1530 26.8629 1530 60V196C1530 229.137 1556.86 256 1590 256H1726C1759.14 256 1786 229.137 1786 196V60C1786 26.8629 1759.14 0 1726 0Z" fill="#F03C2E"/>
<mask id="mask0_0_1" style="mask-type:luminance" maskUnits="userSpaceOnUse" x="1558" y="28" width="200" height="200">
<path d="M1758 28H1558V228H1758V28Z" fill="white"/>
</mask>
<g mask="url(#mask0_0_1)">
<path d="M1754.22 119.094L1666.91 31.775C1665.71 30.5787 1664.29 29.6298 1662.73 28.9824C1661.17 28.3349 1659.49 28.0017 1657.8 28.0017C1656.11 28.0017 1654.43 28.3349 1652.87 28.9824C1651.31 29.6298 1649.89 30.5787 1648.69 31.775L1630.57 49.9L1653.57 72.9C1658.92 71.025 1665.04 72.3062 1669.31 76.5687C1671.33 78.6014 1672.75 81.1638 1673.39 83.9632C1674.04 86.7626 1673.88 89.6862 1672.94 92.4L1695.11 114.569C1700.47 112.719 1706.66 113.912 1710.94 118.206C1712.36 119.63 1713.49 121.32 1714.26 123.18C1715.03 125.04 1715.43 127.033 1715.43 129.046C1715.42 131.059 1715.03 133.052 1714.26 134.912C1713.49 136.771 1712.36 138.461 1710.93 139.884C1709.51 141.308 1707.82 142.436 1705.96 143.206C1704.1 143.977 1702.11 144.373 1700.09 144.372C1698.08 144.372 1696.09 143.975 1694.23 143.205C1692.37 142.434 1690.68 141.305 1689.26 139.881C1684.76 135.381 1683.64 128.756 1685.92 123.212L1665.24 102.537V156.944C1666.74 157.686 1668.12 158.666 1669.31 159.844C1670.73 161.267 1671.86 162.956 1672.63 164.816C1673.4 166.675 1673.79 168.668 1673.79 170.681C1673.79 172.694 1673.4 174.687 1672.63 176.546C1671.86 178.406 1670.73 180.096 1669.31 181.519C1667.88 182.942 1666.19 184.071 1664.33 184.841C1662.47 185.611 1660.48 186.008 1658.47 186.008C1656.46 186.008 1654.46 185.611 1652.6 184.841C1650.74 184.071 1649.05 182.942 1647.63 181.519C1646.21 180.096 1645.08 178.407 1644.3 176.548C1643.53 174.688 1643.14 172.694 1643.14 170.681C1643.14 168.668 1643.53 166.675 1644.3 164.815C1645.08 162.955 1646.21 161.266 1647.63 159.844C1649.11 158.369 1650.76 157.25 1652.65 156.5V101.587C1650.82 100.837 1649.11 99.7312 1647.63 98.2437C1645.48 96.0943 1644.02 93.3526 1643.43 90.3684C1642.84 87.3841 1643.15 84.2924 1644.33 81.4875L1621.64 58.8125L1561.77 118.625C1560.57 119.821 1559.62 121.241 1558.97 122.804C1558.33 124.367 1557.99 126.042 1557.99 127.734C1557.99 129.426 1558.33 131.102 1558.97 132.665C1559.62 134.228 1560.57 135.648 1561.77 136.844L1649.09 224.156C1650.29 225.352 1651.71 226.301 1653.27 226.949C1654.83 227.596 1656.51 227.929 1658.2 227.929C1659.89 227.929 1661.57 227.596 1663.13 226.949C1664.69 226.301 1666.11 225.352 1667.31 224.156L1754.22 137.375C1755.42 136.179 1756.37 134.759 1757.02 133.196C1757.67 131.633 1758 129.958 1758 128.266C1758 126.574 1757.67 124.898 1757.02 123.335C1756.37 121.772 1755.42 120.352 1754.22 119.156" fill="white"/>
</g>
</g>
<g clip-path="url(#clip4_0_1)">
<path d="M502 0H366C332.863 0 306 26.8629 306 60V196C306 229.137 332.863 256 366 256H502C535.137 256 562 229.137 562 196V60C562 26.8629 535.137 0 502 0Z" fill="#0277BD"/>
<path d="M359.753 102.651L362.615 134.593H434.096V102.651H359.753Z" fill="#EBEBEB"/>
<path d="M434.095 38H433.985H354L356.904 69.9423H434.095V38Z" fill="#EBEBEB"/>
<path d="M434.095 218.841V185.608L433.955 185.645L398.381 176.04L396.107 150.564H378.821H364.042L368.517 200.718L433.948 218.882L434.095 218.841Z" fill="#EBEBEB"/>
<path d="M473.318 134.593L469.61 176.019L433.985 185.635V218.866L499.468 200.718L499.948 195.321L507.454 111.229L508.233 102.651L514 38H433.985V69.9423H478.994L476.088 102.651H433.985V134.593H473.318Z" fill="white"/>
</g>
<g clip-path="url(#clip5_0_1)">
<path d="M1420 0H1284C1250.86 0 1224 26.8629 1224 60V196C1224 229.137 1250.86 256 1284 256H1420C1453.14 256 1480 229.137 1480 196V60C1480 26.8629 1453.14 0 1420 0Z" fill="#CD6799"/>
<mask id="mask1_0_1" style="mask-type:luminance" maskUnits="userSpaceOnUse" x="1252" y="53" width="200" height="150">
<path d="M1452 53H1252V202.909H1452V53Z" fill="white"/>
</mask>
<g mask="url(#mask1_0_1)">
<path d="M1424.11 139.163C1417.13 139.199 1411.07 140.879 1406 143.361C1404.14 139.674 1402.27 136.388 1401.95 133.978C1401.58 131.167 1401.14 129.451 1401.58 126.092C1402.02 122.733 1403.99 117.951 1403.95 117.586C1403.92 117.22 1403.51 115.505 1399.5 115.468C1395.48 115.432 1392.02 116.235 1391.61 117.294C1391.21 118.352 1390.45 120.762 1389.93 123.245C1389.24 126.896 1381.9 139.93 1377.7 146.757C1376.35 144.092 1375.18 141.755 1374.93 139.893C1374.56 137.082 1374.12 135.366 1374.56 132.007C1375 128.648 1376.97 123.865 1376.94 123.5C1376.9 123.135 1376.5 121.419 1372.48 121.383C1368.47 121.346 1365 122.149 1364.6 123.208C1364.19 124.267 1363.76 126.75 1362.92 129.159C1362.08 131.569 1352.33 153.329 1349.77 158.951C1348.46 161.835 1347.33 164.135 1346.52 165.705C1346.52 165.705 1346.49 165.815 1346.38 165.997C1345.68 167.348 1345.28 168.078 1345.28 168.078C1345.28 168.078 1345.28 168.078 1345.28 168.115C1344.73 169.101 1344.15 170.013 1343.86 170.013C1343.64 170.013 1343.24 167.385 1343.93 163.807C1345.39 156.249 1348.86 144.493 1348.82 144.092C1348.82 143.873 1349.48 141.828 1346.56 140.769C1343.71 139.71 1342.69 141.463 1342.43 141.463C1342.18 141.463 1342 142.084 1342 142.084C1342 142.084 1345.17 128.867 1335.94 128.867C1330.17 128.867 1322.21 135.183 1318.27 140.879C1315.78 142.23 1310.49 145.114 1304.83 148.217C1302.68 149.422 1300.45 150.627 1298.37 151.759C1298.22 151.613 1298.08 151.43 1297.93 151.284C1286.76 139.345 1266.09 130.912 1266.97 114.884C1267.3 109.042 1269.31 93.7083 1306.65 75.0883C1337.4 59.9368 1361.86 64.1354 1366.09 73.4454C1372.15 86.7349 1352.99 111.415 1321.22 114.993C1309.1 116.344 1302.75 111.671 1301.14 109.919C1299.46 108.093 1299.21 107.984 1298.59 108.349C1297.56 108.896 1298.22 110.539 1298.59 111.488C1299.54 113.971 1303.44 118.352 1310.05 120.506C1315.89 122.405 1330.09 123.464 1347.29 116.819C1366.53 109.371 1381.57 88.6699 1377.15 71.3278C1372.74 53.7302 1343.53 47.9251 1315.89 57.7462C1299.46 63.5878 1281.65 72.7882 1268.83 84.7634C1253.61 99.0022 1251.2 111.379 1252.18 116.563C1255.72 134.964 1281.1 146.939 1291.25 155.811C1290.74 156.103 1290.26 156.359 1289.86 156.578C1284.79 159.097 1265.44 169.21 1260.62 179.908C1255.14 192.029 1261.49 200.718 1265.69 201.886C1278.73 205.501 1292.12 199.002 1299.32 188.268C1306.51 177.534 1305.63 163.588 1302.31 157.199C1302.27 157.126 1302.24 157.053 1302.16 156.98C1303.48 156.213 1304.83 155.41 1306.14 154.643C1308.74 153.11 1311.29 151.686 1313.48 150.517C1312.24 153.913 1311.33 157.965 1310.89 163.807C1310.34 170.671 1313.15 179.579 1316.84 183.084C1318.48 184.617 1320.42 184.654 1321.66 184.654C1325.97 184.654 1327.9 181.076 1330.06 176.841C1332.69 171.656 1335.06 165.632 1335.06 165.632C1335.06 165.632 1332.1 181.916 1340.13 181.916C1343.05 181.916 1346.01 178.119 1347.33 176.184C1347.33 176.22 1347.33 176.22 1347.33 176.22C1347.33 176.22 1347.4 176.111 1347.55 175.855C1347.84 175.38 1348.02 175.088 1348.02 175.088C1348.02 175.088 1348.02 175.052 1348.02 175.015C1349.19 172.971 1351.82 168.334 1355.72 160.63C1360.76 150.7 1365.62 138.287 1365.62 138.287C1365.62 138.287 1366.06 141.317 1367.55 146.355C1368.43 149.313 1370.25 152.562 1371.71 155.702C1370.55 157.345 1369.82 158.257 1369.82 158.257C1369.82 158.257 1369.82 158.257 1369.85 158.294C1368.9 159.535 1367.88 160.886 1366.75 162.2C1362.77 166.947 1358.02 172.387 1357.37 173.957C1356.6 175.819 1356.78 177.169 1358.24 178.265C1359.3 179.068 1361.2 179.177 1363.13 179.068C1366.71 178.812 1369.23 177.936 1370.47 177.388C1372.41 176.695 1374.67 175.636 1376.79 174.066C1380.7 171.182 1383.07 167.056 1382.85 161.616C1382.74 158.622 1381.75 155.629 1380.55 152.817C1380.92 152.306 1381.24 151.795 1381.61 151.284C1387.78 142.266 1392.56 132.372 1392.56 132.372C1392.56 132.372 1393 135.402 1394.5 140.441C1395.23 142.996 1396.72 145.771 1398.04 148.473C1392.23 153.183 1388.66 158.659 1387.38 162.237C1385.08 168.882 1386.87 171.875 1390.26 172.569C1391.8 172.898 1393.99 172.168 1395.59 171.474C1397.64 170.817 1400.05 169.685 1402.35 168.005C1406.25 165.121 1410.01 161.105 1409.79 155.665C1409.68 153.183 1409.03 150.736 1408.12 148.363C1413.04 146.319 1419.4 145.187 1427.5 146.136C1444.88 148.181 1448.31 159.024 1447.65 163.588C1447 168.151 1443.35 170.634 1442.14 171.401C1440.94 172.168 1440.54 172.423 1440.65 172.971C1440.79 173.774 1441.38 173.737 1442.4 173.591C1443.82 173.336 1451.53 169.904 1451.85 161.507C1452.4 150.773 1442.18 139.053 1424.11 139.163ZM1290.04 184.362C1284.27 190.641 1276.24 193.015 1272.77 191.007C1269.05 188.852 1270.51 179.579 1277.59 172.934C1281.9 168.882 1287.45 165.121 1291.14 162.821C1291.98 162.31 1293.22 161.58 1294.72 160.667C1294.97 160.521 1295.12 160.448 1295.12 160.448C1295.41 160.265 1295.7 160.083 1295.99 159.9C1298.59 169.393 1296.1 177.754 1290.04 184.362ZM1332.03 155.811C1330.02 160.704 1325.82 173.226 1323.27 172.533C1321.08 171.948 1319.73 162.456 1322.83 153.073C1324.4 148.363 1327.72 142.741 1329.66 140.55C1332.8 137.045 1336.26 135.877 1337.1 137.301C1338.16 139.163 1333.27 152.744 1332.03 155.811ZM1366.68 172.387C1365.84 172.825 1365.03 173.117 1364.67 172.898C1364.41 172.752 1365.03 172.168 1365.03 172.168C1365.03 172.168 1369.38 167.494 1371.09 165.377C1372.08 164.135 1373.25 162.675 1374.49 161.032C1374.49 161.178 1374.49 161.361 1374.49 161.507C1374.49 167.093 1369.09 170.853 1366.68 172.387ZM1393.4 166.289C1392.78 165.851 1392.89 164.391 1394.97 159.827C1395.78 158.038 1397.67 155.045 1400.92 152.16C1401.29 153.329 1401.54 154.46 1401.51 155.519C1401.47 162.566 1396.43 165.194 1393.4 166.289Z" fill="white"/>
</g>
</g>
<defs>
<clipPath id="clip0_0_1">
<rect width="256" height="256" fill="white" transform="translate(918)"/>
</clipPath>
<clipPath id="clip1_0_1">
<rect width="256" height="256" fill="white" transform="translate(612)"/>
</clipPath>
<clipPath id="clip2_0_1">
<rect width="256" height="256" fill="white"/>
</clipPath>
<clipPath id="clip3_0_1">
<rect width="256" height="256" fill="white" transform="translate(1530)"/>
</clipPath>
<clipPath id="clip4_0_1">
<rect width="256" height="256" fill="white" transform="translate(306)"/>
</clipPath>
<clipPath id="clip5_0_1">
<rect width="256" height="256" fill="white" transform="translate(1224)"/>
</clipPath>
</defs>
</svg>
