<svg width="2092" height="270" viewBox="0 0 2092 270" fill="none" xmlns="http://www.w3.org/2000/svg">
<mask id="mask0_34_10" style="mask-type:luminance" maskUnits="userSpaceOnUse" x="1836" y="0" width="256" height="256">
<path d="M2092 0H1836V256H2092V0Z" fill="white"/>
</mask>
<g mask="url(#mask0_34_10)">
<path d="M2032 0H1896C1862.86 0 1836 26.8629 1836 60V196C1836 229.137 1862.86 256 1896 256H2032C2065.14 256 2092 229.137 2092 196V60C2092 26.8629 2065.14 0 2032 0Z" fill="#F03C2E"/>
<mask id="mask1_34_10" style="mask-type:luminance" maskUnits="userSpaceOnUse" x="1864" y="28" width="200" height="200">
<path d="M2064 28H1864V228H2064V28Z" fill="white"/>
</mask>
<g mask="url(#mask1_34_10)">
<path d="M2060.22 119.094L1972.91 31.775C1971.71 30.5787 1970.29 29.6298 1968.73 28.9824C1967.17 28.3349 1965.49 28.0017 1963.8 28.0017C1962.11 28.0017 1960.43 28.3349 1958.87 28.9824C1957.31 29.6298 1955.89 30.5787 1954.69 31.775L1936.57 49.9L1959.57 72.9C1964.92 71.025 1971.04 72.3062 1975.31 76.5687C1977.33 78.6014 1978.75 81.1638 1979.39 83.9632C1980.04 86.7626 1979.88 89.6862 1978.94 92.4L2001.11 114.569C2006.47 112.719 2012.66 113.912 2016.94 118.206C2018.36 119.63 2019.49 121.32 2020.26 123.18C2021.03 125.04 2021.43 127.033 2021.43 129.046C2021.42 131.059 2021.03 133.052 2020.26 134.912C2019.49 136.771 2018.36 138.461 2016.93 139.884C2015.51 141.308 2013.82 142.436 2011.96 143.206C2010.1 143.977 2008.11 144.373 2006.09 144.372C2004.08 144.372 2002.09 143.975 2000.23 143.205C1998.37 142.434 1996.68 141.305 1995.26 139.881C1990.76 135.381 1989.64 128.756 1991.92 123.212L1971.24 102.537V156.944C1972.74 157.686 1974.12 158.666 1975.31 159.844C1976.73 161.267 1977.86 162.956 1978.63 164.816C1979.4 166.675 1979.79 168.668 1979.79 170.681C1979.79 172.694 1979.4 174.687 1978.63 176.546C1977.86 178.406 1976.73 180.096 1975.31 181.519C1973.88 182.942 1972.19 184.071 1970.33 184.841C1968.47 185.611 1966.48 186.008 1964.47 186.008C1962.46 186.008 1960.46 185.611 1958.6 184.841C1956.74 184.071 1955.05 182.942 1953.63 181.519C1952.21 180.096 1951.08 178.407 1950.3 176.548C1949.53 174.688 1949.14 172.694 1949.14 170.681C1949.14 168.668 1949.53 166.675 1950.3 164.815C1951.08 162.955 1952.21 161.266 1953.63 159.844C1955.11 158.369 1956.76 157.25 1958.65 156.5V101.587C1956.82 100.837 1955.11 99.7312 1953.63 98.2437C1951.48 96.0943 1950.02 93.3526 1949.43 90.3684C1948.84 87.3841 1949.15 84.2924 1950.33 81.4875L1927.64 58.8125L1867.77 118.625C1866.57 119.821 1865.62 121.241 1864.97 122.804C1864.33 124.367 1863.99 126.042 1863.99 127.734C1863.99 129.426 1864.33 131.102 1864.97 132.665C1865.62 134.228 1866.57 135.648 1867.77 136.844L1955.09 224.156C1956.29 225.352 1957.71 226.301 1959.27 226.949C1960.83 227.596 1962.51 227.929 1964.2 227.929C1965.89 227.929 1967.57 227.596 1969.13 226.949C1970.69 226.301 1972.11 225.352 1973.31 224.156L2060.22 137.375C2061.42 136.179 2062.37 134.759 2063.02 133.196C2063.67 131.633 2064 129.958 2064 128.266C2064 126.574 2063.67 124.898 2063.02 123.335C2062.37 121.772 2061.42 120.352 2060.22 119.156" fill="white"/>
</g>
</g>
<mask id="mask2_34_10" style="mask-type:luminance" maskUnits="userSpaceOnUse" x="1530" y="0" width="256" height="256">
<path d="M1786 0H1530V256H1786V0Z" fill="white"/>
</mask>
<g mask="url(#mask2_34_10)">
<path d="M1726 0H1590C1556.86 0 1530 26.8629 1530 60V196C1530 229.137 1556.86 256 1590 256H1726C1759.14 256 1786 229.137 1786 196V60C1786 26.8629 1759.14 0 1726 0Z" fill="#CD6799"/>
<mask id="mask3_34_10" style="mask-type:luminance" maskUnits="userSpaceOnUse" x="1558" y="53" width="200" height="150">
<path d="M1758 53H1558V202.909H1758V53Z" fill="white"/>
</mask>
<g mask="url(#mask3_34_10)">
<path d="M1730.11 139.163C1723.13 139.199 1717.07 140.879 1712 143.361C1710.14 139.674 1708.27 136.388 1707.95 133.978C1707.58 131.167 1707.14 129.451 1707.58 126.092C1708.02 122.733 1709.99 117.951 1709.95 117.586C1709.92 117.22 1709.51 115.505 1705.5 115.468C1701.48 115.432 1698.02 116.235 1697.61 117.294C1697.21 118.352 1696.45 120.762 1695.93 123.245C1695.24 126.896 1687.9 139.93 1683.7 146.757C1682.35 144.092 1681.18 141.755 1680.93 139.893C1680.56 137.082 1680.12 135.366 1680.56 132.007C1681 128.648 1682.97 123.865 1682.94 123.5C1682.9 123.135 1682.5 121.419 1678.48 121.383C1674.47 121.346 1671 122.149 1670.6 123.208C1670.19 124.267 1669.76 126.75 1668.92 129.159C1668.08 131.569 1658.33 153.329 1655.77 158.951C1654.46 161.835 1653.33 164.135 1652.52 165.705C1652.52 165.705 1652.49 165.815 1652.38 165.997C1651.68 167.348 1651.28 168.078 1651.28 168.078C1651.28 168.078 1651.28 168.078 1651.28 168.115C1650.73 169.101 1650.15 170.013 1649.86 170.013C1649.64 170.013 1649.24 167.385 1649.93 163.807C1651.39 156.249 1654.86 144.493 1654.82 144.092C1654.82 143.873 1655.48 141.828 1652.56 140.769C1649.71 139.71 1648.69 141.463 1648.43 141.463C1648.18 141.463 1648 142.084 1648 142.084C1648 142.084 1651.17 128.867 1641.94 128.867C1636.17 128.867 1628.21 135.183 1624.27 140.879C1621.78 142.23 1616.49 145.114 1610.83 148.217C1608.68 149.422 1606.45 150.627 1604.37 151.759C1604.22 151.613 1604.08 151.43 1603.93 151.284C1592.76 139.345 1572.09 130.912 1572.97 114.884C1573.3 109.042 1575.31 93.7083 1612.65 75.0883C1643.4 59.9368 1667.86 64.1354 1672.09 73.4454C1678.15 86.7349 1658.99 111.415 1627.22 114.993C1615.1 116.344 1608.75 111.671 1607.14 109.919C1605.46 108.093 1605.21 107.984 1604.59 108.349C1603.56 108.896 1604.22 110.539 1604.59 111.488C1605.54 113.971 1609.44 118.352 1616.05 120.506C1621.89 122.405 1636.09 123.464 1653.29 116.819C1672.53 109.371 1687.57 88.6699 1683.15 71.3278C1678.74 53.7302 1649.53 47.9251 1621.89 57.7462C1605.46 63.5878 1587.65 72.7882 1574.83 84.7634C1559.61 99.0022 1557.2 111.379 1558.18 116.563C1561.72 134.964 1587.1 146.939 1597.25 155.811C1596.74 156.103 1596.26 156.359 1595.86 156.578C1590.79 159.097 1571.44 169.21 1566.62 179.908C1561.14 192.029 1567.49 200.718 1571.69 201.886C1584.73 205.501 1598.12 199.002 1605.32 188.268C1612.51 177.534 1611.63 163.588 1608.31 157.199C1608.27 157.126 1608.24 157.053 1608.16 156.98C1609.48 156.213 1610.83 155.41 1612.14 154.643C1614.74 153.11 1617.29 151.686 1619.48 150.517C1618.24 153.913 1617.33 157.965 1616.89 163.807C1616.34 170.671 1619.15 179.579 1622.84 183.084C1624.48 184.617 1626.42 184.654 1627.66 184.654C1631.97 184.654 1633.9 181.076 1636.06 176.841C1638.69 171.656 1641.06 165.632 1641.06 165.632C1641.06 165.632 1638.1 181.916 1646.13 181.916C1649.05 181.916 1652.01 178.119 1653.33 176.184C1653.33 176.22 1653.33 176.22 1653.33 176.22C1653.33 176.22 1653.4 176.111 1653.55 175.855C1653.84 175.38 1654.02 175.088 1654.02 175.088C1654.02 175.088 1654.02 175.052 1654.02 175.015C1655.19 172.971 1657.82 168.334 1661.72 160.63C1666.76 150.7 1671.62 138.287 1671.62 138.287C1671.62 138.287 1672.06 141.317 1673.55 146.355C1674.43 149.313 1676.25 152.562 1677.71 155.702C1676.55 157.345 1675.82 158.257 1675.82 158.257C1675.82 158.257 1675.82 158.257 1675.85 158.294C1674.9 159.535 1673.88 160.886 1672.75 162.2C1668.77 166.947 1664.02 172.387 1663.37 173.957C1662.6 175.819 1662.78 177.169 1664.24 178.265C1665.3 179.068 1667.2 179.177 1669.13 179.068C1672.71 178.812 1675.23 177.936 1676.47 177.388C1678.41 176.695 1680.67 175.636 1682.79 174.066C1686.7 171.182 1689.07 167.056 1688.85 161.616C1688.74 158.622 1687.75 155.629 1686.55 152.817C1686.92 152.306 1687.24 151.795 1687.61 151.284C1693.78 142.266 1698.56 132.372 1698.56 132.372C1698.56 132.372 1699 135.402 1700.5 140.441C1701.23 142.996 1702.72 145.771 1704.04 148.473C1698.23 153.183 1694.66 158.659 1693.38 162.237C1691.08 168.882 1692.87 171.875 1696.26 172.569C1697.8 172.898 1699.99 172.168 1701.59 171.474C1703.64 170.817 1706.05 169.685 1708.35 168.005C1712.25 165.121 1716.01 161.105 1715.79 155.665C1715.68 153.183 1715.03 150.736 1714.12 148.363C1719.04 146.319 1725.4 145.187 1733.5 146.136C1750.88 148.181 1754.31 159.024 1753.65 163.588C1753 168.151 1749.35 170.634 1748.14 171.401C1746.94 172.168 1746.54 172.423 1746.65 172.971C1746.79 173.774 1747.38 173.737 1748.4 173.591C1749.82 173.336 1757.53 169.904 1757.85 161.507C1758.4 150.773 1748.18 139.053 1730.11 139.163ZM1596.04 184.362C1590.27 190.641 1582.24 193.015 1578.77 191.007C1575.05 188.852 1576.51 179.579 1583.59 172.934C1587.9 168.882 1593.45 165.121 1597.14 162.821C1597.98 162.31 1599.22 161.58 1600.72 160.667C1600.97 160.521 1601.12 160.448 1601.12 160.448C1601.41 160.265 1601.7 160.083 1601.99 159.9C1604.59 169.393 1602.1 177.754 1596.04 184.362ZM1638.03 155.811C1636.02 160.704 1631.82 173.226 1629.27 172.533C1627.08 171.948 1625.73 162.456 1628.83 153.073C1630.4 148.363 1633.72 142.741 1635.66 140.55C1638.8 137.045 1642.26 135.877 1643.1 137.301C1644.16 139.163 1639.27 152.744 1638.03 155.811ZM1672.68 172.387C1671.84 172.825 1671.03 173.117 1670.67 172.898C1670.41 172.752 1671.03 172.168 1671.03 172.168C1671.03 172.168 1675.38 167.494 1677.09 165.377C1678.08 164.135 1679.25 162.675 1680.49 161.032C1680.49 161.178 1680.49 161.361 1680.49 161.507C1680.49 167.093 1675.09 170.853 1672.68 172.387ZM1699.4 166.289C1698.78 165.851 1698.89 164.391 1700.97 159.827C1701.78 158.038 1703.67 155.045 1706.92 152.16C1707.29 153.329 1707.54 154.46 1707.51 155.519C1707.47 162.566 1702.43 165.194 1699.4 166.289Z" fill="white"/>
</g>
</g>
<g clip-path="url(#clip0_34_10)">
<path d="M1420 0H1284C1250.86 0 1224 26.8629 1224 60V196C1224 229.137 1250.86 256 1284 256H1420C1453.14 256 1480 229.137 1480 196V60C1480 26.8629 1453.14 0 1420 0Z" fill="#764ABC"/>
<path d="M1390.58 166.262C1397.96 165.494 1403.56 159.1 1403.3 151.426C1403.05 143.753 1396.69 137.614 1389.05 137.614H1388.54C1380.65 137.87 1374.54 144.52 1374.8 152.45C1375.05 156.286 1376.58 159.611 1378.87 161.913C1370.22 179.051 1356.98 191.584 1337.13 202.071C1323.64 209.233 1309.65 211.791 1295.65 210C1284.19 208.466 1275.29 203.35 1269.69 194.909C1261.54 182.376 1260.78 168.82 1267.65 155.263C1272.49 145.543 1280.12 138.382 1284.96 134.801C1283.94 131.476 1282.41 125.848 1281.65 121.756C1244.75 148.613 1248.56 184.934 1259.76 202.071C1268.16 214.86 1285.21 222.789 1304.05 222.789C1309.14 222.789 1314.23 222.278 1319.32 220.999C1351.89 214.604 1376.58 195.165 1390.58 166.262Z" fill="white"/>
<path d="M1435.37 134.545C1416.03 111.781 1387.52 99.2474 1354.95 99.2474H1350.88C1348.59 94.6433 1343.75 91.5739 1338.4 91.5739H1337.9C1330.01 91.8297 1323.9 98.48 1324.15 106.409C1324.41 114.083 1330.77 120.221 1338.4 120.221H1338.91C1344.51 119.966 1349.35 116.385 1351.38 111.525H1355.97C1375.31 111.525 1393.63 117.152 1410.18 128.151C1422.9 136.591 1432.06 147.59 1437.15 160.891C1441.48 171.633 1441.23 182.12 1436.64 191.073C1429.52 204.629 1417.56 212.047 1401.78 212.047C1391.6 212.047 1381.93 208.977 1376.84 206.675C1374.04 209.233 1368.95 213.326 1365.38 215.883C1376.33 220.999 1387.52 223.813 1398.21 223.813C1422.65 223.813 1440.72 210.256 1447.59 196.7C1454.97 181.865 1454.46 156.287 1435.37 134.545Z" fill="white"/>
<path d="M1306.08 170.61C1306.34 178.284 1312.7 184.422 1320.33 184.422H1320.84C1328.73 184.167 1334.84 177.516 1334.59 169.587C1334.33 161.914 1327.97 155.775 1320.33 155.775H1319.83C1319.32 155.775 1318.55 155.775 1318.04 156.031C1307.61 138.638 1303.28 119.71 1304.81 99.2473C1305.83 83.9004 1310.92 70.5998 1319.83 59.6012C1327.21 50.1373 1341.46 45.5333 1351.13 45.2775C1378.11 44.7659 1389.56 78.529 1390.32 92.0854C1393.63 92.8527 1399.23 94.6432 1403.05 95.9221C1400 54.4856 1374.54 33 1350.11 33C1327.21 33 1306.08 49.6258 1297.68 74.1807C1285.98 106.921 1293.61 138.382 1307.86 163.192C1306.59 164.983 1305.83 167.797 1306.08 170.61Z" fill="white"/>
</g>
<mask id="mask4_34_10" style="mask-type:luminance" maskUnits="userSpaceOnUse" x="918" y="0" width="256" height="256">
<path d="M1174 0H918V256H1174V0Z" fill="white"/>
</mask>
<g mask="url(#mask4_34_10)">
<path d="M1114 0H978C944.863 0 918 26.8629 918 60V196C918 229.137 944.863 256 978 256H1114C1147.14 256 1174 229.137 1174 196V60C1174 26.8629 1147.14 0 1114 0Z" fill="#242938"/>
<path d="M1046 146.951C1056.31 146.951 1064.66 138.598 1064.66 128.295C1064.66 117.992 1056.31 109.639 1046 109.639C1035.7 109.639 1027.35 117.992 1027.35 128.295C1027.35 138.598 1035.7 146.951 1046 146.951Z" fill="#00D8FF"/>
<path fill-rule="evenodd" clip-rule="evenodd" d="M1046 90.3633C1071.05 90.3633 1094.32 93.9575 1111.86 99.9976C1133 107.275 1146 118.306 1146 128.295C1146 138.704 1132.23 150.423 1109.52 157.944C1092.36 163.63 1069.78 166.598 1046 166.598C1021.62 166.598 998.539 163.812 981.183 157.881C959.226 150.376 946 138.506 946 128.295C946 118.387 958.41 107.441 979.251 100.175C996.862 94.0353 1020.71 90.3633 1046 90.3633Z" stroke="#00D8FF" stroke-width="8.911"/>
<path fill-rule="evenodd" clip-rule="evenodd" d="M1012.98 109.438C1025.49 87.7402 1040.23 69.3783 1054.23 57.1971C1071.09 42.5206 1087.14 36.7728 1095.8 41.7623C1104.81 46.9623 1108.08 64.7496 1103.26 88.1712C1099.61 105.879 1090.9 126.925 1079.02 147.523C1066.84 168.641 1052.9 187.247 1039.09 199.315C1021.62 214.587 1004.73 220.114 995.883 215.013C987.3 210.067 984.018 193.846 988.136 172.161C991.614 153.838 1000.35 131.349 1012.98 109.438Z" stroke="#00D8FF" stroke-width="8.911"/>
<path fill-rule="evenodd" clip-rule="evenodd" d="M1013.01 147.578C1000.46 125.904 991.919 103.962 988.353 85.7516C984.06 63.8108 987.095 47.0354 995.74 42.0314C1004.75 36.8162 1021.79 42.8659 1039.67 58.7436C1053.19 70.7478 1067.08 88.8051 1078.99 109.383C1091.2 130.481 1100.36 151.856 1103.92 169.844C1108.43 192.608 1104.78 210.001 1095.94 215.116C1087.37 220.08 1071.68 214.825 1054.95 200.427C1040.81 188.263 1025.68 169.468 1013.01 147.578Z" stroke="#00D8FF" stroke-width="8.911"/>
</g>
<mask id="mask5_34_10" style="mask-type:luminance" maskUnits="userSpaceOnUse" x="612" y="0" width="256" height="256">
<path d="M868 0H612V256H868V0Z" fill="white"/>
</mask>
<g mask="url(#mask5_34_10)">
<path d="M808 0H672C638.863 0 612 26.8629 612 60V196C612 229.137 638.863 256 672 256H808C841.137 256 868 229.137 868 196V60C868 26.8629 841.137 0 808 0Z" fill="#F0DB4F"/>
<path d="M679.312 213.932L698.903 202.076C702.682 208.777 706.12 214.447 714.367 214.447C722.272 214.447 727.256 211.355 727.256 199.327V117.529H751.314V199.667C751.314 224.584 736.708 235.926 715.398 235.926C696.153 235.926 684.982 225.959 679.311 213.93" fill="#323330"/>
<path d="M764.381 211.354L783.969 200.013C789.126 208.434 795.828 214.62 807.684 214.62C817.653 214.62 824.009 209.636 824.009 202.762C824.009 194.514 817.479 191.592 806.481 186.782L800.468 184.203C783.111 176.815 771.597 167.535 771.597 147.945C771.597 129.901 785.345 116.153 806.826 116.153C822.12 116.153 833.118 121.481 841.022 135.4L822.291 147.429C818.166 140.04 813.7 137.119 806.826 137.119C799.78 137.119 795.312 141.587 795.312 147.429C795.312 154.646 799.78 157.568 810.09 162.037L816.104 164.614C836.553 173.379 848.067 182.313 848.067 202.418C848.067 224.072 831.055 235.928 808.2 235.928C785.861 235.928 771.426 225.274 764.381 211.354Z" fill="#323330"/>
</g>
<mask id="mask6_34_10" style="mask-type:luminance" maskUnits="userSpaceOnUse" x="306" y="0" width="256" height="256">
<path d="M562 0H306V256H562V0Z" fill="white"/>
</mask>
<g mask="url(#mask6_34_10)">
<path d="M502 0H366C332.863 0 306 26.8629 306 60V196C306 229.137 332.863 256 366 256H502C535.137 256 562 229.137 562 196V60C562 26.8629 535.137 0 502 0Z" fill="#0277BD"/>
<path d="M359.753 102.651L362.615 134.593H434.096V102.651H359.753Z" fill="#EBEBEB"/>
<path d="M434.095 38H433.985H354L356.904 69.9423H434.095V38Z" fill="#EBEBEB"/>
<path d="M434.095 218.841V185.608L433.955 185.645L398.381 176.04L396.107 150.564H378.821H364.042L368.517 200.718L433.948 218.882L434.095 218.841Z" fill="#EBEBEB"/>
<path d="M473.318 134.593L469.61 176.019L433.985 185.635V218.866L499.468 200.718L499.948 195.321L507.454 111.229L508.233 102.651L514 38H433.985V69.9423H478.994L476.088 102.651H433.985V134.593H473.318Z" fill="white"/>
</g>
<mask id="mask7_34_10" style="mask-type:luminance" maskUnits="userSpaceOnUse" x="0" y="0" width="256" height="256">
<path d="M256 0H0V256H256V0Z" fill="white"/>
</mask>
<g mask="url(#mask7_34_10)">
<path d="M196 0H60C26.8629 0 0 26.8629 0 60V196C0 229.137 26.8629 256 60 256H196C229.137 256 256 229.137 256 196V60C256 26.8629 229.137 0 196 0Z" fill="#E14E1D"/>
<path d="M48 38L56.6098 134.593H167.32L163.605 176.023L127.959 185.661L92.38 176.037L90.0012 149.435H57.9389L62.5236 200.716L127.951 218.888L193.461 200.716L202.244 102.655H85.8241L82.901 69.9448H205.041H205.139L208 38H48Z" fill="white"/>
<path d="M128 38H48L56.6098 134.593H128V102.655H85.8241L82.901 69.9448H128V38Z" fill="#EBEBEB"/>
<path d="M128 185.647L127.959 185.661L92.38 176.037L90.0012 149.435H57.9388L62.5236 200.716L127.951 218.888L128 218.874V185.647Z" fill="#EBEBEB"/>
</g>
<defs>
<clipPath id="clip0_34_10">
<rect width="256" height="256" fill="white" transform="translate(1224)"/>
</clipPath>
</defs>
</svg>
