<svg width="1174" height="256" viewBox="0 0 1174 256" fill="none" xmlns="http://www.w3.org/2000/svg">
<rect width="1174" height="256" fill="none"/>
<g clip-path="url(#clip0_0_1)">
<path d="M196 0H60C26.8629 0 0 26.8629 0 60V196C0 229.137 26.8629 256 60 256H196C229.137 256 256 229.137 256 196V60C256 26.8629 229.137 0 196 0Z" fill="#242938"/>
<path d="M33.7158 100.208C33.7158 100.208 28.9814 96.795 34.6627 92.2381L47.8994 80.402C47.8994 80.402 51.6869 76.4172 55.6915 79.8891L177.84 172.368V216.714C177.84 216.714 177.781 223.678 168.844 222.908L33.7158 100.208Z" fill="#2489CA"/>
<path d="M65.1997 128.792L33.7157 157.415C33.7157 157.415 30.4805 159.822 33.7157 164.123L48.3333 177.418C48.3333 177.418 51.8052 181.147 56.9341 176.905L90.3119 151.596L65.1997 128.792Z" fill="#1070B3"/>
<path d="M120.474 129.029L178.215 84.9391L177.84 40.83C177.84 40.83 175.374 31.2033 167.148 36.2139L90.312 106.145L120.474 129.029Z" fill="#0877B9"/>
<path d="M168.844 222.968C172.198 226.4 176.262 225.276 176.262 225.276L221.259 203.103C227.019 199.177 226.21 194.305 226.21 194.305V61.8982C226.21 56.0788 220.252 54.0667 220.252 54.0667L181.253 35.267C172.731 30 167.148 36.2139 167.148 36.2139C167.148 36.2139 174.328 31.0455 177.84 40.83V215.905C177.84 217.109 177.583 218.292 177.071 219.358C176.045 221.429 173.816 223.362 168.47 222.553L168.844 222.968Z" fill="#3C99D4"/>
</g>
<g clip-path="url(#clip1_0_1)">
<path d="M1114 0H978C944.863 0 918 26.8629 918 60V196C918 229.137 944.863 256 978 256H1114C1147.14 256 1174 229.137 1174 196V60C1174 26.8629 1147.14 0 1114 0Z" fill="#242938"/>
<path d="M1003.95 199.926L1028.48 213.546H1065.58L1100.28 187.491L1115.83 146.632L1079.93 103.405L1069.76 79.1268L1020.1 80.9032L1020.7 94.5228L1011.13 112.287L996.171 141.303L993.18 165.581L1003.95 199.926Z" fill="#ECEFF1"/>
<path d="M1105.06 114.656C1095.49 101.036 1087.71 92.7463 1083.52 75.5738C1079.34 58.4013 1084.72 63.1386 1081.13 48.3347C1079.34 40.6367 1076.35 35.3073 1073.35 31.1622C1069.76 27.0171 1065.58 24.6485 1063.18 24.0563C1057.8 21.0956 1045.23 16.3583 1029.68 24.6485C1013.52 32.9387 1015.32 50.7033 1018.31 86.8248C1018.31 89.1934 1017.71 92.1542 1016.51 94.5228C1014.12 99.8522 1009.93 104.589 1006.34 108.735C1002.15 114.656 997.966 120.578 994.975 127.091C987.795 140.711 981.213 157.883 983.008 164.397C986 163.805 1023.69 220.652 1023.69 221.836C1026.09 221.244 1036.26 221.244 1045.23 221.244C1057.8 220.652 1064.98 220.06 1075.15 222.428C1075.15 220.652 1074.55 218.875 1074.55 217.099C1074.55 213.546 1075.15 210.585 1075.75 206.44C1076.34 203.479 1076.94 200.519 1077.54 196.966C1071.56 202.295 1060.79 208.217 1050.62 209.993C1041.64 211.769 1026.69 208.809 1019.51 199.926C1020.1 199.926 1021.3 199.926 1021.9 199.334C1023.69 198.742 1025.49 198.15 1026.09 196.966C1027.88 194.005 1026.69 191.044 1025.49 189.268C1024.29 187.491 1015.32 180.977 1011.13 177.425C1006.94 173.872 1004.55 172.095 1002.15 169.727C1002.15 169.727 998.565 166.174 997.368 164.989C996.171 163.805 995.573 162.621 994.975 162.028C993.778 159.068 993.18 155.515 993.778 150.778C994.376 144.264 996.77 138.934 999.761 133.013C1000.96 130.644 1003.95 125.907 1003.95 125.907C1003.95 125.907 993.778 150.778 999.163 158.476C999.163 158.476 999.761 150.778 1002.15 143.08C1003.95 137.75 1006.94 130.052 1010.53 125.907C1014.12 121.762 1023.1 106.366 1023.69 96.8914C1023.69 92.7463 1024.29 88.6012 1024.29 85.6405C1021.9 83.2718 1063.78 77.3503 1066.17 83.864C1066.77 86.2326 1075.15 107.55 1079.93 118.801C1082.33 124.131 1085.32 128.868 1087.12 134.789C1088.91 141.303 1090.11 150.185 1090.11 159.068C1090.11 160.844 1090.11 163.805 1089.51 166.766C1090.7 166.766 1114.04 141.895 1086.52 121.17C1086.52 121.17 1103.27 128.868 1103.87 144.264C1104.47 156.699 1099.08 166.766 1097.88 168.542C1098.48 168.542 1110.45 173.872 1111.05 173.872C1113.44 173.872 1118.23 172.095 1118.23 172.095C1118.83 170.319 1120.62 165.581 1120.62 163.805C1124.81 150.185 1114.64 128.276 1105.06 114.656Z" fill="#263238"/>
<path d="M1029.08 75.5738C1033.37 75.5738 1036.86 70.2714 1036.86 63.7307C1036.86 57.1899 1033.37 51.8876 1029.08 51.8876C1024.78 51.8876 1021.3 57.1899 1021.3 63.7307C1021.3 70.2714 1024.78 75.5738 1029.08 75.5738Z" fill="#ECEFF1"/>
<path d="M1056 76.7581C1061.62 76.7581 1066.17 70.6604 1066.17 63.1386C1066.17 55.6167 1061.62 49.519 1056 49.519C1050.38 49.519 1045.83 55.6167 1045.83 63.1386C1045.83 70.6604 1050.38 76.7581 1056 76.7581Z" fill="#ECEFF1"/>
<path d="M1033.42 64.5411C1032.93 60.6476 1030.66 57.7241 1028.37 58.0111C1026.07 58.2982 1024.62 61.6872 1025.11 65.5807C1025.61 69.4741 1027.87 72.3977 1030.17 72.1106C1032.46 71.8235 1033.92 68.4345 1033.42 64.5411Z" fill="#212121"/>
<path d="M1055.4 73.2052C1058.71 73.2052 1061.39 69.7587 1061.39 65.5072C1061.39 61.2557 1058.71 57.8091 1055.4 57.8091C1052.1 57.8091 1049.42 61.2557 1049.42 65.5072C1049.42 69.7587 1052.1 73.2052 1055.4 73.2052Z" fill="#212121"/>
<path d="M1134.98 195.781C1132.59 194.597 1128.4 192.82 1124.81 187.491C1123.01 184.53 1123.61 176.24 1120.62 172.687C1118.82 170.319 1116.43 171.503 1115.83 171.503C1110.45 172.687 1097.88 180.977 1089.51 171.503C1088.31 170.319 1086.52 168.542 1083.52 168.542C1080.53 168.542 1079.34 169.726 1078.14 172.095C1076.94 174.464 1076.94 176.24 1076.94 182.162C1076.94 186.899 1076.94 192.228 1076.35 196.373C1075.15 206.44 1073.35 212.362 1073.35 218.283C1073.35 224.797 1075.15 228.942 1077.54 230.718C1079.34 232.495 1082.33 233.679 1088.91 233.679C1095.49 233.679 1099.68 231.311 1103.87 227.165C1106.86 224.205 1109.25 223.02 1117.63 217.099C1124.21 212.954 1134.38 207.624 1136.18 205.848C1137.37 204.664 1139.17 204.071 1139.17 200.518C1139.17 197.558 1136.77 196.373 1134.98 195.781Z" fill="#FFC107"/>
<path d="M1014.72 197.558C1008.74 188.083 1008.14 186.307 1003.95 180.385C1000.36 174.464 992.581 163.213 987.795 163.213C984.205 163.213 982.41 164.989 980.017 167.358C977.623 169.726 975.23 175.056 971.042 178.017C967.452 180.977 957.281 180.385 954.888 183.938C952.494 187.491 957.281 192.821 957.281 201.703C957.281 205.256 954.289 207.624 953.691 209.993C953.093 212.954 952.494 214.73 953.691 217.099C956.084 220.652 959.076 221.836 979.418 225.981C990.188 228.35 1000.36 234.271 1006.94 234.864C1013.52 235.456 1024.89 234.864 1024.89 218.875C1025.49 209.401 1020.1 207.032 1014.72 197.558Z" fill="#FFC107"/>
<path d="M1026.09 90.3777C1022.5 88.0091 1019.5 85.6404 1019.5 82.0875C1019.5 78.5346 1021.9 77.3503 1025.49 74.3895C1026.09 73.7973 1032.67 67.8758 1039.25 67.8758C1045.83 67.8758 1053.61 72.0209 1056.6 73.2052C1061.99 74.3895 1067.37 75.5738 1066.77 79.7189C1066.17 85.6404 1065.58 86.8248 1059.59 89.7855C1055.4 90.9698 1047.63 97.4835 1042.24 97.4835C1039.85 97.4835 1036.26 97.4835 1033.86 96.8914C1032.07 96.2992 1029.08 93.3385 1026.09 90.3777Z" fill="#FFC107"/>
<path d="M1024.89 85.6405C1026.09 86.8248 1027.88 88.0091 1029.68 88.6012C1030.87 89.1934 1032.67 89.7856 1032.67 89.7856C1035.06 89.7856 1036.86 89.7856 1038.05 89.7856C1041.05 89.7856 1045.23 88.6013 1049.42 86.2326C1053.61 84.4562 1054.21 83.2718 1057.2 82.0875C1060.19 80.3111 1063.18 78.5346 1061.99 77.9425C1060.79 77.3503 1059.59 77.9425 1055.4 80.3111C1051.81 82.6797 1048.82 83.864 1045.23 85.6405C1043.44 86.2326 1041.04 87.4169 1039.25 87.4169C1037.46 87.4169 1035.66 87.4169 1033.86 87.4169C1032.07 87.4169 1030.87 86.8248 1029.08 86.2326C1027.88 85.6405 1027.28 85.0483 1026.68 85.0483C1025.49 84.4562 1023.1 82.0875 1021.9 81.4954C1021.9 81.4954 1020.7 81.4954 1021.3 82.0875C1023.1 83.864 1023.69 84.4562 1024.89 85.6405Z" fill="#634703"/>
<path d="M1042.84 72.613C1043.44 73.7973 1044.64 73.7973 1045.23 74.3895C1045.83 74.9816 1046.43 74.9816 1046.43 74.9816C1047.03 74.3895 1046.43 73.2052 1045.83 73.2052C1045.83 72.0209 1042.84 72.0209 1042.84 72.613Z" fill="#634703"/>
<path d="M1033.27 73.7973C1033.27 74.3895 1034.46 74.9816 1034.46 74.3895C1035.06 73.7973 1035.66 73.2052 1036.26 73.2052C1037.46 72.613 1036.86 72.0209 1035.06 72.0209C1033.86 72.613 1033.86 73.2052 1033.27 73.7973Z" fill="#634703"/>
<path d="M1091.3 178.609C1091.3 179.201 1091.3 179.793 1091.3 180.385C1092.5 182.754 1095.49 183.346 1097.88 183.346C1101.47 183.346 1105.06 180.977 1106.86 178.609C1106.86 178.017 1107.46 177.424 1108.06 176.832C1109.25 175.056 1109.85 173.872 1110.45 173.279C1110.45 173.279 1109.85 172.687 1109.85 172.095C1109.25 170.911 1107.46 169.726 1105.06 169.134C1103.27 168.542 1100.28 167.95 1099.08 167.95C1093.7 167.358 1090.71 169.134 1088.91 170.911C1088.91 170.911 1089.51 170.911 1089.51 171.503C1090.7 172.687 1091.3 173.872 1091.3 175.648C1091.9 176.832 1091.3 177.424 1091.3 178.609Z" fill="#455A64"/>
</g>
<g clip-path="url(#clip2_0_1)">
<path d="M808 0H672C638.863 0 612 26.8629 612 60V196C612 229.137 638.863 256 672 256H808C841.137 256 868 229.137 868 196V60C868 26.8629 841.137 0 808 0Z" fill="#242938"/>
<path d="M647 62.9703L721.258 52.79V124.468H647M730.202 51.3356L828.588 37V123.845H730.202M647 132.031H721.258V203.916L647 193.528M730.202 132.986H828.588V219L730.202 205.08M884.126 72.3196L898.187 72.4027L920.027 151.56C921.587 157.087 922.731 162.738 923.438 168.472C931.051 136.061 941.452 104.481 950.271 72.4858L962.439 72.5274L981.243 141.089C983.594 150.189 986.651 159.164 987.587 168.514C994.451 136.103 1004.29 104.523 1012.13 72.5274L1025.98 72.4651L995.2 182.579H980.224L957.967 103.422C956.719 99.1626 956.199 94.758 955.804 90.3326C955.222 94.1347 954.681 97.9783 953.724 101.697L931.259 182.309C926.267 182.579 921.275 182.6 916.283 182.558L884.25 72.4443M1033.89 73.1507C1034.15 71.0533 1035.21 69.1354 1036.84 67.7875C1038.47 66.4396 1040.55 65.7629 1042.67 65.8953C1044.78 66.0277 1046.76 66.9591 1048.21 68.5001C1049.66 70.041 1048.21 77.7649 1048.21 79.8789C1049.66 78.338 1048.21 81.9929 1048.21 79.8789C1046.76 81.4198 1044.78 82.3513 1042.67 82.4837C1040.55 82.6161 1038.47 81.9394 1036.84 80.5915C1035.21 79.2436 1034.15 77.3257 1033.89 75.2283M1035.76 103.484H1048.24V182.434H1035.76M1081.85 116.199C1088.99 103.526 1105.63 97.6667 1119.05 103.526C1129.72 107.681 1133.69 120.022 1134.02 130.535C1134.61 147.821 1134.13 165.127 1134.27 182.413C1130.11 182.413 1125.95 182.413 1121.79 182.392C1121.58 165.771 1122.21 149.15 1121.5 132.529C1121.17 124.302 1117.67 114.412 1108.71 112.314C1095.6 108.366 1082.56 120.147 1082.15 133.09C1081.77 149.503 1082.13 165.979 1082 182.413H1069.52V103.484H1082L1081.83 116.199M1208.61 66.0868H1208.8H1221.09V182.434H1208.65L1208.3 169.76C1199.29 185.924 1175.23 189.498 1161.5 177.51C1151.66 169.054 1148.67 155.279 1149.19 142.813C1149.29 130.182 1153.45 116.843 1163.54 108.533C1176.64 97.7705 1199.73 98.3938 1208.88 114.205L1208.8 66.0868L1208.8 66.0037M1181.97 111.919C1171.98 113.498 1165.22 122.598 1163.35 132.01C1160.9 143.354 1161.33 156.526 1168.49 166.083C1176.23 176.346 1193.24 176.575 1201.56 166.872C1207.18 161.013 1208.8 152.62 1208.84 144.85C1208.9 136.539 1209.61 127.19 1204.1 120.334C1199.23 113.415 1190.16 110.299 1182.05 112.023M1268.93 101.635C1280.06 100.658 1292.44 102.404 1300.76 110.444C1310.2 119.17 1313.03 132.675 1312.49 144.933C1312.35 156.048 1308.23 167.371 1300.07 175.058C1283.06 190.516 1251.4 187.108 1240.58 165.875C1232.1 148.07 1233.8 123.492 1249.32 109.987C1254.87 105.292 1261.9 103.131 1268.87 101.593M1266.63 112.896C1248.32 118.505 1245.2 142.398 1250.92 158.188C1255.5 172.15 1273.18 178.341 1286.07 171.817C1294.71 167.87 1298.64 158.105 1299.47 149.171C1300.41 138.783 1299.57 126.94 1292.19 118.838C1285.95 111.815 1397.26 169.262 1388.48 171.817M1318.86 103.484H1331.88L1347.27 159.995C1348.31 163.527 1348.73 167.184 1349.1 170.841C1354.99 148.195 1362.41 125.964 1369.11 103.526L1380.49 103.588C1386.21 126.026 1393.32 148.049 1398.06 170.903C1402.95 148.465 1409.92 126.234 1415.33 104.003C1419.49 103.796 1423.69 103.733 1427.89 103.692L1404.39 182.642H1391.45C1385.83 161.242 1378.55 140.258 1373.98 118.651C1368.57 140.258 1361.02 161.242 1354.84 182.642H1342.36L1318.86 103.692M1458.22 101.406C1466.02 100.866 1473.97 101.614 1481.31 104.481C1483.35 108.346 1481.77 113.415 1482.24 117.778C1473.51 112.314 1461.44 108.844 1451.87 114.392C1445.36 117.924 1445.05 128.374 1451.4 132.259C1460.49 138.139 1472.03 139.676 1480.1 147.218C1489 155.778 1486.84 172.15 1476.42 178.59C1463.73 186.651 1447.09 185.862 1433.78 179.712L1433.67 165.75C1443.12 172.939 1456.35 176.928 1467.79 171.817C1474.38 168.493 1474.71 158.396 1468.91 154.157C1459.82 147.467 1447.28 146.408 1439.37 138.056C1431.41 130.036 1432.84 115.202 1441.72 108.553C1446.3 104.336 1452.54 103.068 1458.36 101.427M1545.58 70.6575L1549.95 70.0342V182.434H1537.64L1537.78 88.7329C1529.94 94.1347 1521.47 98.7886 1512.2 101.365L1512.34 88.8991C1524.41 84.8062 1535.43 78.1993 1545.41 70.4913M1595.5 70.4498C1606.32 68.6422 1618.38 72.5897 1624.83 81.7728C1633.98 94.6541 1268.48 108.678 1268.93 123.845C1268.62 139.926 1633.19 159.892 1622.92 172.981C1613.45 185.384 1594 188.293 1581.32 179.172C1571.02 171.755 1566.96 158.811 1565.15 146.761C1563.07 128.956 1563.28 110.195 1569.46 93.366C1573.37 81.8352 1583.02 71.9664 1595.46 70.5121M1593.55 81.6689C1582.46 86.1566 1579.28 99.2457 1577.74 109.925C1576.12 124.759 1575.74 140.05 1579.28 154.594C1581.05 161.782 1584.77 169.407 1591.9 172.565C1600.02 176.637 1610.83 173.126 1614.99 165.148C1621.79 153.409 1621.96 139.385 1622.06 126.089C1621.79 113.207 1621.27 99.495 1614.16 88.2758C1609.94 81.4612 1600.85 78.7187 1593.48 81.6689" fill="#0078D6"/>
<path d="M1208.8 66.0868H1221.09V182.434H1208.65L1208.3 169.76C1199.29 185.924 1175.23 189.498 1161.5 177.51C1151.66 169.054 1148.67 155.279 1149.19 142.813C1149.29 130.182 1153.45 116.843 1163.54 108.533C1176.64 97.7705 1199.73 98.3938 1208.88 114.205L1208.8 66.0868Z" fill="#0078D6"/>
</g>
<g clip-path="url(#clip3_0_1)">
<path d="M502 0H366C332.863 0 306 26.8629 306 60V196C306 229.137 332.863 256 366 256H502C535.137 256 562 229.137 562 196V60C562 26.8629 535.137 0 502 0Z" fill="#242938"/>
<mask id="mask0_0_1" style="mask-type:luminance" maskUnits="userSpaceOnUse" x="367" y="28" width="134" height="200">
<path d="M500.36 28H367V228H500.36V28Z" fill="white"/>
</mask>
<g mask="url(#mask0_0_1)">
<path d="M400.347 228C418.747 228 433.68 213.067 433.68 194.667V161.333H400.347C381.947 161.333 367.013 176.267 367.013 194.667C367.013 213.067 381.947 228 400.347 228Z" fill="#0ACF83"/>
<path d="M367.013 128C367.013 109.6 381.947 94.6667 400.347 94.6667H433.68V161.333H400.347C381.947 161.333 367.013 146.4 367.013 128Z" fill="#A259FF"/>
<path d="M367.013 61.3333C367.013 42.9333 381.947 28 400.347 28H433.68V94.6667H400.347C381.947 94.6667 367.013 79.7333 367.013 61.3333Z" fill="#F24E1E"/>
<path d="M433.68 28H467.013C485.413 28 500.347 42.9333 500.347 61.3333C500.347 79.7333 485.413 94.6667 467.013 94.6667H433.68V28Z" fill="#FF7262"/>
<path d="M500.347 128C500.347 146.4 485.413 161.333 467.013 161.333C448.613 161.333 433.68 146.4 433.68 128C433.68 109.6 448.613 94.6667 467.013 94.6667C485.413 94.6667 500.347 109.6 500.347 128Z" fill="#1ABCFE"/>
</g>
</g>
<defs>
<clipPath id="clip0_0_1">
<rect width="256" height="256" fill="white"/>
</clipPath>
<clipPath id="clip1_0_1">
<rect width="256" height="256" fill="white" transform="translate(918)"/>
</clipPath>
<clipPath id="clip2_0_1">
<rect width="256" height="256" fill="white" transform="translate(612)"/>
</clipPath>
<clipPath id="clip3_0_1">
<rect width="256" height="256" fill="white" transform="translate(306)"/>
</clipPath>
</defs>
</svg>
